<?xml version="1.0" standalone="no"?>
<!DOCTYPE svg PUBLIC "-//W3C//DTD SVG 20010904//EN"
 "http://www.w3.org/TR/2001/REC-SVG-20010904/DTD/svg10.dtd">
<svg version="1.0" xmlns="http://www.w3.org/2000/svg"
 width="512.000000pt" height="512.000000pt" viewBox="0 0 512.000000 512.000000"
 preserveAspectRatio="xMidYMid meet">

<g transform="translate(0.000000,512.000000) scale(0.100000,-0.100000)"
fill="#000000" stroke="none">
<path d="M2236 3234 c-95 -30 -176 -143 -176 -244 0 -147 118 -265 264 -263
73 1 120 19 174 67 107 97 113 273 12 374 -71 71 -177 97 -274 66z"/>
<path d="M3986 3234 c-95 -30 -176 -143 -176 -244 0 -147 118 -265 264 -263
73 1 120 19 174 67 107 97 113 273 12 374 -71 71 -177 97 -274 66z"/>
</g>
</svg>
